<svg id="svg" fill="#000000" stroke="#000000" width="200px" height="200px" version="1.1" viewBox="144 144 512 512" xmlns="http://www.w3.org/2000/svg">
    <g id="IconSvg_bgCarrier" stroke-width="0"></g>
    <g id="IconSvg_tracerCarrier" stroke-linecap="round" stroke-linejoin="round" stroke="#CCCCCC"></g>
     <g id="IconSvg_iconCarrier">
      <path xmlns="http://www.w3.org/2000/svg" d="m285.63 418.14 101.27 156.18c3.0234 4.0312 8.0625 7.0547 13.102 7.0547s10.078-2.5195 12.594-7.0547l101.27-156.18s0.50391-0.50391 0.50391-0.50391c11.586-20.152 17.633-42.824 17.633-66 0.50391-73.555-58.945-133-132-133-73.055 0-132.5 59.449-132.5 132.5 0 23.176 6.0469 46.352 17.633 66 0.50391 0.50391 0.50391 0.50391 0.50391 1.0078zm114.37-122.43c30.73 0 55.418 24.688 55.418 55.418 0 30.73-24.688 55.418-55.418 55.418s-55.418-24.688-55.418-55.418c-0.003906-30.73 24.684-55.418 55.418-55.418z"></path>

      </g>
      </svg>