<svg id="svg" fill="#000000" stroke="#000000" width="200px" height="200px" version="1.1" viewBox="144 144 512 512" xmlns="http://www.w3.org/2000/svg">
    <g id="IconSvg_bgCarrier" stroke-width="0"></g>
    <g id="IconSvg_tracerCarrier" stroke-linecap="round" stroke-linejoin="round" stroke="#CCCCCC"></g>
     <g id="IconSvg_iconCarrier">
      <path xmlns="http://www.w3.org/2000/svg" d="m567.93 473.47c-26.238 0-51.434-4.2031-74.516-11.543-7.3477-2.1016-15.742-1.0547-20.992 5.2461l-46.188 46.176c-59.828-30.434-108.11-78.719-138.55-138.55l46.188-46.176c5.2461-5.2461 7.3438-13.641 5.2461-20.992-8.4023-24.137-12.598-49.332-12.598-75.574 0.003906-11.539-9.4414-20.988-20.988-20.988h-73.473c-11.547 0-20.992 9.4492-20.992 20.992 0 197.32 159.54 356.86 356.86 356.86 11.543 0 20.992-9.4492 20.992-20.992v-73.473c0-11.539-9.4492-20.988-20.992-20.988z"></path>

      </g>
      </svg>